<mxfile host="app.diagrams.net" modified="2023-06-26T14:36:22.331Z" agent="Mozilla/5.0 (Windows NT 10.0; Win64; x64) AppleWebKit/537.36 (KHTML, like Gecko) Chrome/114.0.0.0 Safari/537.36" version="21.5.0" etag="eJYZ2VGBmaA_jJlJBTAw" type="github">
  <diagram name="PÃ¡gina-1" id="UQnzNbkvfJF1-2r6CD4K">
    <mxGraphModel>
      <root>
        <mxCell id="0" />
        <mxCell id="1" parent="0" />
      </root>
    </mxGraphModel>
  </diagram>
</mxfile>
